<?xml version="1.0" encoding="UTF-8" standalone="no"?>
<!-- Creator: CorelDRAW -->

<svg
   xmlns:dc="http://purl.org/dc/elements/1.1/"
   xmlns:cc="http://creativecommons.org/ns#"
   xmlns:rdf="http://www.w3.org/1999/02/22-rdf-syntax-ns#"
   xmlns:svg="http://www.w3.org/2000/svg"
   xmlns="http://www.w3.org/2000/svg"
   xmlns:sodipodi="http://sodipodi.sourceforge.net/DTD/sodipodi-0.dtd"
   xmlns:inkscape="http://www.inkscape.org/namespaces/inkscape"
   xml:space="preserve"
   width="97"
   height="97"
   style="fill-rule:evenodd;image-rendering:optimizeQuality;shape-rendering:geometricPrecision;text-rendering:geometricPrecision"
   viewBox="0 0 97.324415 98"
   id="svg3262"
   version="1.1"
   inkscape:version="0.91 r13725"
   sodipodi:docname="ieee.svg"><metadata
     id="metadata3289"><rdf:RDF><cc:Work
         rdf:about=""><dc:format>image/svg+xml</dc:format><dc:type
           rdf:resource="http://purl.org/dc/dcmitype/StillImage" /><dc:title></dc:title></cc:Work></rdf:RDF></metadata><sodipodi:namedview
     pagecolor="#ffffff"
     bordercolor="#666666"
     borderopacity="1"
     objecttolerance="10"
     gridtolerance="10"
     guidetolerance="10"
     inkscape:pageopacity="0"
     inkscape:pageshadow="2"
     inkscape:window-width="1863"
     inkscape:window-height="1056"
     id="namedview3287"
     showgrid="false"
     inkscape:zoom="2.2324709"
     inkscape:cx="133.19523"
     inkscape:cy="54.812042"
     inkscape:window-x="57"
     inkscape:window-y="24"
     inkscape:window-maximized="1"
     inkscape:current-layer="g3269" /><defs
     id="defs3264"><style
       type="text/css"
       id="style3266"><![CDATA[
    .fil0 {fill:none}
    .fil1 {fill:#0C1C8C}
   ]]></style></defs><g
     id="Layer 1"><g
       id="g3269"><path
         class="fil0"
         d="M 305,102 0,102 0,-7 l 305,0 0,109 z"
         id="path3271"
         inkscape:connector-curvature="0"
         style="fill:none" /><path
         class="fil1"
         d="m 54,12 c 3,3 6,7 8,10 l 7,7 c 7,6 13,11 20,16 l 0,0 c 1,1 2,2 2,3 0,2 -3,3 -4,4 C 73,62 61,74 51,88 l -1,1 c 0,0 -1,0 -2,0 C 47,88 47,87 46,87 44,83 41,80 39,77 37,76 36,74 35,73 27,64 18,56 9,50 8,49 7,48 8,47 8,46 9,45 10,45 22,37 33,26 42,15 l 5,-8 c 1,0 2,-1 3,0 0,0 1,0 1,1 l 3,4 z m -8,6 c -2,2 -5,4 -7,6 -1,0 -1,1 -1,1 -6,5 -12,11 -16,17 -2,2 -3,3 -4,5 0,2 0,3 1,3 4,6 9,12 15,17 4,4 9,9 14,11 2,1 4,0 5,-1 7,-5 14,-11 20,-18 2,-3 5,-6 7,-10 0,-2 0,-3 -1,-4 C 74,38 69,32 62,26 l 0,0 c -2,-2 -5,-4 -7,-6 -2,-2 -6,-4 -9,-2 z"
         id="path3281"
         inkscape:connector-curvature="0"
         style="fill:#008cba;fill-opacity:1" /><path
         class="fil1"
         d="m 55,22 c 8,7 16,15 22,24 1,1 2,3 1,4 -2,2 -4,5 -6,7 l 0,0 c -5,6 -10,11 -16,16 -3,1 -5,5 -9,3 -8,-6 -16,-14 -23,-22 -1,-1 -3,-3 -3,-5 -1,-2 1,-4 2,-6 7,-9 16,-17 24,-23 3,-2 6,1 8,2 z m -6,3 -1,3 -3,11 c 0,0 2,0 3,0 l 0,0 -1,13 0,0 c 1,0 3,0 4,0 l 0,-1 0,-12 0,0 3,0 C 52,34 51,30 49,25 l 0,0 z M 36,43 c -2,1 -5,2 -5,5 1,2 2,3 4,4 7,3 17,3 26,1 1,-1 4,-2 5,-5 0,-2 -3,-3 -4,-4 l 0,0 c 0,0 1,0 2,0 l 0,0 c -3,-1 -6,-2 -8,-2 0,1 1,2 1,3 1,0 2,0 2,0 2,0 4,1 4,3 0,1 -2,2 -3,3 -6,2 -12,2 -19,1 -1,-1 -4,-2 -4,-4 1,-3 4,-3 7,-4 -1,-1 -3,-2 -4,-3 -1,1 -3,1 -4,2 z m 11,12 c 0,4 0,9 -1,13 2,0 4,0 6,0 l -1,-12 0,-1 c -1,0 -2,0 -4,0 z"
         id="path3283"
         inkscape:connector-curvature="0"
         style="fill:#008cba;fill-opacity:1" /><path
         class="fil1"
         d="m 66,82 0,-1 1,0 c 0,0 1,0 1,0 0,1 0,1 -1,1 l -1,0 z m 0,1 1,0 1,2 1,0 -1,-2 c 0,0 1,-1 1,-2 0,-1 -1,-1 -2,-1 l -2,0 0,5 1,0 0,-2 z m 5,-1 c 0,-2 -2,-4 -4,-4 -2,0 -4,2 -4,4 0,3 2,5 4,5 2,0 4,-2 4,-5 z m -1,0 c 0,2 -1,4 -3,4 l 0,0 c -2,0 -3,-2 -3,-4 0,-2 1,-3 3,-3 2,0 3,1 3,3 z"
         id="path3285"
         inkscape:connector-curvature="0"
         style="fill:#008cba;fill-opacity:1" /></g></g></svg>